<svg width="16" height="16" viewBox="0 0 16 16" fill="none" xmlns="http://www.w3.org/2000/svg">
<path fill-rule="evenodd" clip-rule="evenodd" d="M4.14518 10.3072C5.16759 9.47022 6.55419 9 8 9C9.44581 9 10.8324 9.47022 11.8548 10.3072C12.0484 10.4657 12.0484 10.7226 11.8549 10.8811C11.6613 11.0396 11.3475 11.0396 11.1539 10.8812C10.3174 10.1963 9.18294 9.8116 8 9.8116C6.81706 9.8116 5.68257 10.1963 4.84606 10.8812C4.6525 11.0396 4.33869 11.0396 4.14514 10.8811C3.9516 10.7226 3.95162 10.4657 4.14518 10.3072Z" fill="#202939"/>
<path fill-rule="evenodd" clip-rule="evenodd" d="M8.64597 2.15333C9.73557 1.84446 10.8965 2.00617 11.8734 2.60289L11.8734 2.6029C12.8503 3.19966 13.5631 4.18255 13.8551 5.33534C14.147 6.48814 13.9942 7.71642 13.4302 8.74999C13.3675 8.86484 13.2643 8.94864 13.1432 8.98296C13.0221 9.01728 12.8931 8.99931 12.7846 8.93301L6.23629 4.93295C6.12775 4.86664 6.04854 4.75742 6.0161 4.62933C5.98366 4.50124 6.00065 4.36475 6.06333 4.24991C6.62737 3.21637 7.55638 2.46221 8.64597 2.15333ZM11.4008 3.46893C10.641 3.00481 9.73806 2.87904 8.89059 3.11928C8.19679 3.31595 7.58671 3.74475 7.14756 4.33487L12.8185 7.79902C13.082 7.10159 13.128 6.3282 12.9421 5.59415C12.715 4.69754 12.1606 3.93308 11.4008 3.46893Z" fill="#202939"/>
<path fill-rule="evenodd" clip-rule="evenodd" d="M10.5647 2.10841C10.8395 1.99058 11.1855 1.9325 11.4981 2.12622C11.8108 2.32 11.9371 2.67097 11.9796 2.98561C12.0231 3.30704 11.9942 3.68089 11.9202 4.06958C11.7711 4.85215 11.4174 5.80629 10.9048 6.75941C10.7811 6.98955 10.5071 7.06833 10.2929 6.93538C10.0787 6.80243 10.0053 6.5081 10.1291 6.27796C10.6068 5.38957 10.9175 4.53299 11.0424 3.87668C11.1054 3.54593 11.1159 3.2933 11.093 3.12384C11.0796 3.02472 11.0593 2.97997 11.0489 2.96275C11.0298 2.96165 10.9835 2.96512 10.8967 3.00232C10.7486 3.06581 10.5502 3.20194 10.3151 3.42592C9.84857 3.87036 9.31342 4.58758 8.83596 5.47602C8.71226 5.70619 8.4383 5.78505 8.22405 5.65216C8.0098 5.51927 7.93639 5.22496 8.06009 4.99479C8.57229 4.04171 9.16448 3.23568 9.72074 2.70579C9.99702 2.4426 10.2839 2.22879 10.5647 2.10841ZM11.0596 2.96438C11.0596 2.96442 11.0591 2.96429 11.0581 2.96392L11.0596 2.96438ZM11.0433 2.95474C11.0426 2.95402 11.0422 2.9536 11.0422 2.95357L11.0433 2.95474Z" fill="#202939"/>
<path fill-rule="evenodd" clip-rule="evenodd" d="M9.74994 5.0601C9.98907 5.18382 10.071 5.45782 9.93293 5.6721L7.93304 8.77592C7.79497 8.9902 7.4892 9.06362 7.25006 8.9399C7.01093 8.81618 6.929 8.54218 7.06707 8.3279L9.06696 5.22408C9.20503 5.0098 9.5108 4.93638 9.74994 5.0601Z" fill="#202939"/>
<path fill-rule="evenodd" clip-rule="evenodd" d="M2.17913 12.8571C2.02052 12.8612 1.86481 12.8947 1.7227 12.9552C1.47544 13.0605 1.17534 12.9742 1.0524 12.7623C0.929457 12.5504 1.03024 12.2933 1.2775 12.1879C1.54988 12.0719 1.84842 12.0079 2.15249 12.0005L2.15629 12.0004L2.15629 12.0004C2.49709 11.9943 2.83451 12.0593 3.1394 12.19C3.44429 12.3206 3.70749 12.5129 3.90626 12.7502C4.01037 12.8745 4.14824 12.9752 4.30794 13.0436C4.46765 13.112 4.64439 13.1461 4.82291 13.1429C4.82989 13.1428 4.83687 13.1428 4.84385 13.1429C5.02237 13.1461 5.19911 13.112 5.35881 13.0436C5.51852 12.9752 5.65638 12.8745 5.7605 12.7502C5.95927 12.5129 6.22247 12.3206 6.52736 12.19C6.82913 12.0607 7.16276 11.9956 7.5 12.0002C7.83724 11.9956 8.17087 12.0607 8.47264 12.19C8.77753 12.3206 9.04073 12.5129 9.2395 12.7502C9.34362 12.8745 9.48148 12.9752 9.64119 13.0436C9.80089 13.112 9.97763 13.1461 10.1561 13.1429C10.1631 13.1428 10.1701 13.1428 10.1771 13.1429C10.3556 13.1461 10.5324 13.112 10.6921 13.0436C10.8518 12.9752 10.9896 12.8745 11.0937 12.7502C11.2925 12.5129 11.5557 12.3206 11.8606 12.19C12.1655 12.0593 12.5029 11.9943 12.8437 12.0004L12.8475 12.0005V12.0005C13.1516 12.0079 13.4501 12.0719 13.7225 12.1879C13.9698 12.2933 14.0705 12.5504 13.9476 12.7623C13.8247 12.9742 13.5246 13.0605 13.2773 12.9552C13.1352 12.8947 12.9795 12.8612 12.8209 12.8571C12.643 12.8541 12.4669 12.8882 12.3078 12.9564C12.1481 13.0248 12.0102 13.1255 11.9061 13.2498C11.7073 13.4871 11.4442 13.6794 11.1393 13.81C10.8375 13.9393 10.5039 14.0044 10.1666 13.9998C9.82938 14.0044 9.49575 13.9393 9.19398 13.81C8.88909 13.6794 8.62589 13.4871 8.42712 13.2498C8.323 13.1255 8.18514 13.0248 8.02543 12.9564C7.86573 12.888 7.68899 12.8539 7.51047 12.8571C7.50349 12.8572 7.49651 12.8572 7.48953 12.8571C7.31101 12.8539 7.13427 12.888 6.97456 12.9564C6.81486 13.0248 6.677 13.1255 6.57288 13.2498C6.37411 13.4871 6.11091 13.6794 5.80602 13.81C5.50425 13.9393 5.17062 14.0044 4.83338 13.9998C4.49614 14.0044 4.16251 13.9393 3.86074 13.81C3.55585 13.6794 3.29265 13.4871 3.09388 13.2498C2.98976 13.1255 2.8519 13.0248 2.69219 12.9564C2.53305 12.8882 2.357 12.8541 2.17913 12.8571Z" fill="#202939"/>
</svg>
