<svg width="58" height="24" viewBox="0 0 58 24" fill="none" xmlns="http://www.w3.org/2000/svg">
<path d="M46.097 0H12.6126C6.03879 0 0.709656 5.37258 0.709656 12C0.709656 18.6274 6.03879 24 12.6126 24H46.097C52.6708 24 58 18.6274 58 12C58 5.37258 52.6708 0 46.097 0Z" fill="#303030"/>
<path d="M30.1478 8.4455H25.3975V16.0944H27.708V14.0368H30.1459C30.7189 14.0368 31.2768 14.0198 31.8198 13.8443C32.8721 13.5064 33.6529 12.5588 33.6529 11.2732C33.6529 9.98773 32.8871 9.05522 31.8517 8.68712C31.2787 8.47759 30.7357 8.4455 30.1459 8.4455H30.1478ZM27.7099 12.2379V10.2935H29.8145C30.2601 10.2935 30.5166 10.3426 30.7226 10.4219C31.0896 10.5673 31.2637 10.9033 31.2637 11.2581C31.2637 11.6432 31.0559 12.0132 30.6589 12.1416C30.468 12.2058 30.2451 12.2379 29.8145 12.2379H27.7099Z" fill="white"/>
<path d="M36.9671 13.2987L38.0662 10.2143H38.2422L39.3413 13.2987H36.9671ZM36.3941 14.9863H39.9012L40.3468 16.0944H42.9439L39.8356 8.4455H36.4559L33.3477 16.0944H35.9616L36.3923 14.9863H36.3941Z" fill="white"/>
<path d="M48.5686 8.4455L46.6887 11.932H46.6082L44.7115 8.4455H42.0189L45.4454 14.0689V16.0944H47.8365V13.8764L51.0889 8.4455H48.5686Z" fill="white"/>
<path d="M7.62262 6.1765H20.4599V12.6852C20.4599 14.3539 19.5761 15.8962 18.1437 16.7305L14.0413 19.1185L9.9388 16.7305C8.50453 15.8962 7.62262 14.3539 7.62262 12.6852V6.1765Z" fill="#FFDD2D"/>
<path fill-rule="evenodd" clip-rule="evenodd" d="M11.1446 9.60265V11.6262C11.4199 11.3129 11.9179 11.1015 12.489 11.1015H13.1088V13.4554C13.1088 14.0821 12.9403 14.6295 12.6894 14.9316H15.3875C15.1385 14.6295 14.97 14.0821 14.97 13.4573V11.1034H15.5897C16.1608 11.1034 16.6608 11.3148 16.9341 11.6281V9.60453H11.1428L11.1446 9.60265Z" fill="#333333"/>
</svg>
