<svg width="10" height="12" viewBox="0 0 10 12" fill="none" xmlns="http://www.w3.org/2000/svg">
<path fill-rule="evenodd" clip-rule="evenodd" d="M5 0.947368C4.1919 0.947368 3.40158 1.19952 2.72895 1.67248C2.05626 2.14548 1.53129 2.81827 1.22111 3.6063C0.910914 4.39436 0.829674 5.2618 0.987848 6.09871C1.14601 6.93558 1.53632 7.70368 2.10874 8.30612C2.10873 8.3061 2.10876 8.30613 2.10874 8.30612L4.51998 10.843C4.51994 10.843 4.52002 10.8431 4.51998 10.843C4.64816 10.9777 4.82107 11.0526 5.00028 11.0526C5.17955 11.0526 5.35239 10.9778 5.48059 10.843L7.89121 8.30617C7.89121 8.30617 7.89122 8.30616 7.89121 8.30617C8.46365 7.70372 8.85398 6.9356 9.01215 6.09871C9.17033 5.2618 9.08909 4.39436 8.77889 3.6063C8.46871 2.81827 7.94374 2.14548 7.27105 1.67248C6.59842 1.19952 5.8081 0.947368 5 0.947368ZM2.22047 0.887165C3.04282 0.308926 4.01011 0 5 0C5.98989 0 6.95718 0.308926 7.77953 0.887165C8.60183 1.46537 9.24207 2.2867 9.61997 3.24677C9.99785 4.20679 10.0967 5.26292 9.90411 6.28179C9.71154 7.30068 9.23609 8.23722 8.53719 8.97275L6.12639 11.5098C5.82843 11.823 5.42338 12 5.00028 12C4.57718 12 4.1723 11.8232 3.87434 11.51L1.46285 8.9728C0.763956 8.23727 0.288459 7.30068 0.0958922 6.28179C-0.0966701 5.26292 0.00214674 4.20679 0.380031 3.24677C0.757932 2.2867 1.39817 1.46537 2.22047 0.887165ZM3.47172 3.65525C3.87628 3.22951 4.42593 2.98947 5 2.98947C5.57407 2.98947 6.12372 3.22951 6.52828 3.65525C6.93268 4.08083 7.15909 4.65707 7.15909 5.25695C7.15909 5.85684 6.93268 6.43308 6.52828 6.85866C6.12372 7.2844 5.57407 7.52443 5 7.52443C4.42593 7.52443 3.87628 7.2844 3.47172 6.85866C3.06731 6.43308 2.84091 5.85684 2.84091 5.25695C2.84091 4.65707 3.06731 4.08083 3.47172 3.65525ZM5 3.93684C4.66992 3.93684 4.35245 4.07479 4.11768 4.32185C3.88277 4.56907 3.75 4.90535 3.75 5.25695C3.75 5.60856 3.88277 5.94484 4.11768 6.19206C4.35245 6.43912 4.66992 6.57706 5 6.57706C5.33007 6.57706 5.64754 6.43912 5.88231 6.19206C6.11723 5.94484 6.25 5.60856 6.25 5.25695C6.25 4.90535 6.11723 4.56907 5.88231 4.32185C5.64754 4.07479 5.33007 3.93684 5 3.93684Z" fill="#202939"/>
</svg>
