<svg width="14" height="12" viewBox="0 0 14 12" fill="none" xmlns="http://www.w3.org/2000/svg">
<path fill-rule="evenodd" clip-rule="evenodd" d="M4.59009 0.233299C4.7076 0.0863807 4.89142 0 5.08656 0H7C7.22316 0 7.42921 0.112769 7.53993 0.295497L9.91214 4.21053H12.1025C12.6058 4.21053 13.0884 4.39906 13.4442 4.73465C13.8001 5.07024 14 5.5254 14 6C14 6.4746 13.8001 6.92976 13.4442 7.26535C13.0884 7.60094 12.6058 7.78947 12.1025 7.78947H9.91214L7.53993 11.7045C7.42921 11.8872 7.22316 12 7 12H5.08656C4.89142 12 4.7076 11.9136 4.59009 11.7667C4.47258 11.6198 4.43501 11.4294 4.48862 11.2524L5.53776 7.78947H4.06852L2.97503 8.82071C2.85841 8.93069 2.70024 8.99248 2.53531 8.99248H0.621869C0.406343 8.99248 0.206185 8.88724 0.0928761 8.71434C-0.0204323 8.54144 -0.0307329 8.32554 0.065653 8.14374L1.20223 6L0.065653 3.85626C-0.0307329 3.67446 -0.0204323 3.45856 0.0928761 3.28566C0.206185 3.11276 0.406343 3.00752 0.621869 3.00752H2.53531C2.70024 3.00752 2.85841 3.06931 2.97503 3.17929L4.06852 4.21053H5.53776L4.48862 0.747581C4.43501 0.570634 4.47258 0.380217 4.59009 0.233299ZM5.91099 1.17293L6.96013 4.63588C7.01374 4.81282 6.97616 5.00324 6.85865 5.15016C6.74114 5.29708 6.55732 5.38346 6.36219 5.38346H3.81093C3.646 5.38346 3.48783 5.32167 3.37121 5.21169L2.27772 4.18045H1.62807L2.45371 5.73772C2.54125 5.90283 2.54125 6.09717 2.45371 6.26228L1.62807 7.81955H2.27772L3.37121 6.78831C3.48783 6.67833 3.646 6.61654 3.81093 6.61654H6.36219C6.55732 6.61654 6.74114 6.70292 6.85865 6.84984C6.97616 6.99676 7.01374 7.18718 6.96013 7.36412L5.91099 10.8271H6.63912L9.01132 6.91204C9.12204 6.72931 9.32809 6.61654 9.55125 6.61654H12.1025C12.2759 6.61654 12.4422 6.55158 12.5648 6.43596C12.6874 6.32034 12.7563 6.16352 12.7563 6C12.7563 5.83648 12.6874 5.67966 12.5648 5.56404C12.4422 5.44842 12.2759 5.38346 12.1025 5.38346H9.55125C9.32809 5.38346 9.12204 5.27069 9.01132 5.08796L6.63912 1.17293H5.91099Z" fill="#202939"/>
</svg>
